<svg width="9" height="11" viewBox="0 0 9 11" fill="none" xmlns="http://www.w3.org/2000/svg">
<g id="Bag 2">
<path id="Bag 2_2" fill-rule="evenodd" clip-rule="evenodd" d="M6.52509 2.96544H6.61897C7.8528 2.96544 8.85417 3.99669 8.85417 5.26169V7.79169C8.85417 9.05669 7.8528 10.0834 6.61897 10.0834H2.38103C1.1472 10.0834 0.145836 9.05669 0.145836 7.79169V5.26169C0.145836 3.99669 1.1472 2.96544 2.38103 2.96544H2.47491C2.48385 2.41544 2.69396 1.9021 3.07395 1.5171C3.4584 1.12752 3.95014 0.930437 4.50447 0.916687C5.61313 0.916687 6.51168 1.83335 6.52509 2.96544ZM3.54334 2.00752C3.293 2.26419 3.15441 2.60335 3.14547 2.96544H5.85453C5.84112 2.21377 5.24209 1.60419 4.50447 1.60419C4.16025 1.60419 3.80262 1.74627 3.54334 2.00752ZM6.19875 4.73002C6.38651 4.73002 6.53403 4.57419 6.53403 4.38627V3.8546C6.53403 3.66669 6.38651 3.51085 6.19875 3.51085C6.01547 3.51085 5.86347 3.66669 5.86347 3.8546V4.38627C5.86347 4.57419 6.01547 4.73002 6.19875 4.73002ZM3.0963 4.38627C3.0963 4.57419 2.94877 4.73002 2.76102 4.73002C2.57773 4.73002 2.42574 4.57419 2.42574 4.38627V3.8546C2.42574 3.66669 2.57773 3.51085 2.76102 3.51085C2.94877 3.51085 3.0963 3.66669 3.0963 3.8546V4.38627Z" fill="black"/>
</g>
</svg>
