<svg width="13" height="11" viewBox="0 0 13 11" fill="none" xmlns="http://www.w3.org/2000/svg">
<path fill-rule="evenodd" clip-rule="evenodd" d="M7.46323 2.91036C7.46323 4.52599 6.14115 5.82073 4.49138 5.82073C2.84221 5.82073 1.51953 4.52599 1.51953 2.91036C1.51953 1.29473 2.84221 0 4.49138 0C6.14115 0 7.46323 1.29473 7.46323 2.91036ZM0 9.11617C0 7.62058 2.06893 7.24639 4.49126 7.24639C6.92674 7.24639 8.98252 7.63346 8.98252 9.13022C8.98252 10.6258 6.91359 11 4.49126 11C2.05578 11 0 10.6129 0 9.11617ZM8.66148 2.96336C8.66148 3.78611 8.40914 4.55381 7.96665 5.19151C7.92061 5.2571 7.96127 5.34552 8.0414 5.35958C8.15262 5.37773 8.26683 5.38885 8.38343 5.3912C9.54346 5.42106 10.5845 4.68967 10.8721 3.58818C11.2985 1.95381 10.0475 0.486328 8.45399 0.486328C8.28118 0.486328 8.11554 0.503896 7.95409 0.536103C7.93197 0.540788 7.90805 0.551328 7.89609 0.570067C7.88054 0.594076 7.89191 0.625112 7.90745 0.645608C8.38642 1.30322 8.66148 2.10372 8.66148 2.96336ZM10.5828 6.54042C11.3625 6.68975 11.875 6.99367 12.0873 7.43695C12.2673 7.80002 12.2673 8.22164 12.0873 8.5847C11.7626 9.27101 10.715 9.49178 10.3078 9.54858C10.2234 9.56029 10.1559 9.49002 10.1648 9.40687C10.3729 7.50488 8.71838 6.60308 8.29024 6.39578C8.2723 6.38583 8.26812 6.37177 8.26991 6.3624C8.27111 6.35655 8.27888 6.34718 8.29263 6.34542C9.21887 6.32785 10.2151 6.45258 10.5828 6.54042Z" fill="black"/>
</svg>
