<svg width="14" height="22" viewBox="0 0 14 22" fill="none" xmlns="http://www.w3.org/2000/svg">
<g id="Map pin">
<path id="Pin" fill-rule="evenodd" clip-rule="evenodd" d="M6.79412 0C10.5464 0 13.5882 3.04183 13.5882 6.79412C13.5882 10.3282 10.89 13.232 7.44118 13.5578V20.7059C7.44118 21.0632 7.15148 21.3529 6.79412 21.3529C6.43676 21.3529 6.14706 21.0632 6.14706 20.7059V13.5578C2.69828 13.232 0 10.3282 0 6.79412C0 3.04183 3.04183 0 6.79412 0Z" fill="black"/>
<path id="Circle" d="M9.05889 6.79412C9.05889 5.54336 8.04495 4.52942 6.79418 4.52942C5.54342 4.52942 4.52948 5.54336 4.52948 6.79412C4.52948 8.04489 5.54342 9.05883 6.79418 9.05883C8.04495 9.05883 9.05889 8.04489 9.05889 6.79412Z" fill="white"/>
<path id="Shadow" opacity="0.3" d="M6.79416 21.9997C7.68756 21.9997 8.41181 21.6376 8.41181 21.1909C8.41181 20.7442 7.68756 20.3821 6.79416 20.3821C5.90076 20.3821 5.17651 20.7442 5.17651 21.1909C5.17651 21.6376 5.90076 21.9997 6.79416 21.9997Z" fill="black"/>
</g>
</svg>
