<svg width="18" height="18" viewBox="0 0 18 18" fill="none" xmlns="http://www.w3.org/2000/svg">
<g id="vuesax/bold/setting">
<g id="setting">
<path id="Vector" d="M14.205 4.06496L10.3275 1.82246C9.585 1.39496 8.4225 1.39496 7.68 1.82246L3.765 4.07996C2.2125 5.12996 2.1225 5.28746 2.1225 6.95996V11.0325C2.1225 12.705 2.2125 12.87 3.795 13.935L7.6725 16.1775C8.0475 16.395 8.5275 16.5 9 16.5C9.4725 16.5 9.9525 16.395 10.32 16.1775L14.235 13.92C15.7875 12.87 15.8775 12.7125 15.8775 11.04V6.95996C15.8775 5.28746 15.7875 5.12996 14.205 4.06496ZM9 11.4375C7.6575 11.4375 6.5625 10.3425 6.5625 8.99996C6.5625 7.65746 7.6575 6.56246 9 6.56246C10.3425 6.56246 11.4375 7.65746 11.4375 8.99996C11.4375 10.3425 10.3425 11.4375 9 11.4375Z" fill="black"/>
</g>
</g>
</svg>
