<svg width="32" height="10" viewBox="0 0 32 10" fill="none" xmlns="http://www.w3.org/2000/svg">
<g id="Group">
<path id="Vector" d="M8.92353 0.182807C8.10638 2.38696 7.28715 4.59076 6.47793 6.79698C6.40997 6.4379 6.35409 6.07469 6.27579 5.71974C5.96017 4.15545 5.66491 2.58909 5.34308 1.02894C5.27927 0.581209 4.88294 0.197294 4.42072 0.199364C3.39522 0.153832 2.36731 0.205573 1.34181 0.178668C0.893733 0.186946 0.417029 0.100366 0 0.314917C0.943059 0.626396 1.89854 0.925802 2.75502 1.43976C3.51664 4.24652 4.23273 7.06534 5.00021 9.87003C5.86704 9.87003 6.73387 9.85761 7.60035 9.88452C8.97907 6.67143 10.2377 3.40866 11.5875 0.183151C10.7003 0.189015 9.81278 0.193155 8.92353 0.182807Z" fill="black"/>
<path id="Vector_2" d="M12.5844 0.178711C12.0808 3.4125 11.5175 6.63594 11.0387 9.8718C11.8724 9.87387 12.7041 9.87387 13.5357 9.8718C14.0372 6.63801 14.5778 3.41043 15.0917 0.178711C14.2563 0.18492 13.4201 0.18492 12.5844 0.178711Z" fill="black"/>
<path id="Vector_3" d="M21.5886 5.06581C20.8621 4.20519 19.6466 4.02582 18.8749 3.23522C18.4993 2.81405 18.9449 2.25284 19.3972 2.14556C20.3547 1.89997 21.3823 2.08761 22.2636 2.51085C22.3874 1.80304 22.5071 1.09316 22.5834 0.377069C20.9263 -0.167587 18.9677 -0.196561 17.4693 0.78789C16.4376 1.45845 15.7957 2.84751 16.2807 4.0341C16.6708 4.97302 17.6056 5.49732 18.4745 5.92435C18.9222 6.17409 19.4979 6.40934 19.6279 6.9602C19.6631 7.42242 19.2564 7.74632 18.8622 7.87843C17.7004 8.13644 16.4911 7.86601 15.4487 7.32756C15.3186 8.04986 15.2113 8.7763 15.0834 9.4986C16.2886 9.996 17.628 10.0764 18.9136 9.94219C20.0508 9.78938 21.2188 9.25714 21.8255 8.23957C22.3995 7.27582 22.4305 5.88917 21.5886 5.06581Z" fill="black"/>
<path id="Vector_4" d="M29.0159 0.19109C28.248 0.205577 27.4764 0.160045 26.7086 0.213855C26.1863 0.240761 25.8562 0.725743 25.6889 1.1714C24.4817 4.07716 23.2599 6.9767 22.0505 9.88038C22.9256 9.87831 23.8004 9.87831 24.6755 9.87831C24.859 9.39333 25.0367 8.90421 25.2081 8.41509C26.2771 8.4213 27.346 8.41923 28.4171 8.41923C28.516 8.90835 28.6192 9.3954 28.7285 9.88038C29.5005 9.87831 30.2721 9.87831 31.0441 9.87624C30.3677 6.64866 29.703 3.41867 29.0159 0.19109ZM25.9366 6.42135C26.403 5.22235 26.7848 3.98816 27.307 2.81192C27.4619 4.02955 27.7651 5.22235 28.0149 6.42342C27.3215 6.42342 26.6303 6.42342 25.9366 6.42135Z" fill="black"/>
</g>
</svg>
