<svg width="20" height="20" viewBox="0 0 20 20" fill="none" xmlns="http://www.w3.org/2000/svg">
<g id="vuesax/bold/empty-wallet">
<g id="empty-wallet">
<path id="Vector" d="M12.375 3.29171V6.45837H11.125V3.29171C11.125 3.06671 10.925 2.95837 10.7917 2.95837C10.75 2.95837 10.7084 2.96671 10.6667 2.98337L4.05837 5.47504C3.61671 5.64171 3.33337 6.05837 3.33337 6.53337V7.09171C2.57504 7.65837 2.08337 8.56671 2.08337 9.59171V6.53337C2.08337 5.54171 2.69171 4.65837 3.61671 4.30837L10.2334 1.80837C10.4167 1.74171 10.6084 1.70837 10.7917 1.70837C11.625 1.70837 12.375 2.38337 12.375 3.29171Z" fill="black"/>
<path id="Vector_2" d="M17.9167 12.0833V12.9166C17.9167 13.1416 17.7417 13.325 17.5083 13.3333H16.2917C15.85 13.3333 15.45 13.0083 15.4167 12.575C15.3917 12.3166 15.4917 12.075 15.6583 11.9083C15.8083 11.75 16.0167 11.6666 16.2417 11.6666H17.5C17.7417 11.675 17.9167 11.8583 17.9167 12.0833Z" fill="black"/>
<path id="Vector_3" d="M16.2334 10.7917H17.0834C17.5417 10.7917 17.9167 10.4167 17.9167 9.95837V9.59171C17.9167 7.86671 16.5084 6.45837 14.7834 6.45837H5.21671C4.50837 6.45837 3.85837 6.69171 3.33337 7.09171C2.57504 7.65837 2.08337 8.56671 2.08337 9.59171V15.2C2.08337 16.925 3.49171 18.3334 5.21671 18.3334H14.7834C16.5084 18.3334 17.9167 16.925 17.9167 15.2V15.0417C17.9167 14.5834 17.5417 14.2084 17.0834 14.2084H16.3584C15.5584 14.2084 14.7917 13.7167 14.5834 12.9417C14.4084 12.3084 14.6167 11.7 15.0334 11.2917C15.3417 10.975 15.7667 10.7917 16.2334 10.7917ZM11.6667 10.625H5.83337C5.49171 10.625 5.20837 10.3417 5.20837 10C5.20837 9.65837 5.49171 9.37504 5.83337 9.37504H11.6667C12.0084 9.37504 12.2917 9.65837 12.2917 10C12.2917 10.3417 12.0084 10.625 11.6667 10.625Z" fill="black"/>
</g>
</g>
</svg>
